<svg xmlns="http://www.w3.org/2000/svg" viewBox="0 0 128 160" x="0px" y="0px"><title>Woman, avatar, assistant, young, people, female, therapist</title><g data-name="Layer 2"><path d="M64.01,62.66c.027,0,2.71-.044,2.71-1.61a1,1,0,0,0-1.827-.562,3.187,3.187,0,0,1-.883.172,3.3,3.3,0,0,1-.9-.173,1,1,0,0,0-1.826.563C61.28,62.616,63.982,62.66,64.01,62.66Z"/><path d="M68.521,67.471c-.283.235-1.59.679-4.511.679-2.937,0-4.248-.444-4.531-.679A1,1,0,1,0,58.2,69.01c1.136.942,3.786,1.14,5.809,1.14s4.653-.2,5.789-1.14a1,1,0,1,0-1.278-1.539Z"/><path d="M82.6,96.067a33.1,33.1,0,0,0-3.374-1.486c-.46-.182-.909-.362-1.348-.545-2.454,11.824-9.294,16.879-12.162,18.517a2.96,2.96,0,1,1-3.379-.041c-2.911-1.681-9.671-6.757-12.1-18.51-.468.2-.947.386-1.439.579A33.146,33.146,0,0,0,45.4,96.066c-10.092,5.337-15.058,10.927-17.446,14.676a5.641,5.641,0,0,0-1.035,4.523c.55,2.132,2.675,3.534,4.682,4.625C32.761,120.515,43.5,126,64,126s31.239-5.485,32.4-6.111c2.006-1.09,4.131-2.492,4.681-4.624a5.638,5.638,0,0,0-1.035-4.522C97.655,106.993,92.689,101.4,82.6,96.067Z"/><path d="M102.192,40.771a22.843,22.843,0,0,1-3.134-6.03C95.439,20.693,84.835,7.881,73.272,3.584A22.288,22.288,0,0,0,51.98,6.172a2.472,2.472,0,0,1-.876.394c-11.2,2.6-18.52,11.813-21.743,27.392-.409,1.974-1.747,4.083-3.3,6.525-3.428,5.406-7.695,12.134-5.053,22.3,3.452,13.271,20.657,21.616,35.5,22.951a13.717,13.717,0,0,1-.5,2.614,7.639,7.639,0,0,1-3.924,4.774s.031.152.047.233c2.47,12.4,10.136,16.916,11.92,17.814,1.777-.9,9.459-5.443,11.919-17.792a.8.8,0,0,1,.075-.2,7.77,7.77,0,0,1-3.958-4.569,12.658,12.658,0,0,1-.607-2.917c14.824-1.325,32-9.653,35.451-22.911C109.632,52.416,105.507,45.959,102.192,40.771ZM58.109,88.251a16.606,16.606,0,0,0,.371-2.116,19.251,19.251,0,0,0,5.47.905,19.1,19.1,0,0,0,5.572-.94,15.778,15.778,0,0,0,.459,2.429C67.677,89.875,61.77,90.921,58.109,88.251Zm11.96-4.421a18.41,18.41,0,0,1-6.119,1.21,18.222,18.222,0,0,1-6.026-1.172c-7.091-2.517-15.2-9.1-16.97-16.8-.379-1.634-.921-4.9-1.462-8.793a23.344,23.344,0,0,0,1.93-2.038c.006.022.011.051.016.072a3.827,3.827,0,0,0,3.51,3.063c1.293.08,3.08.107,4.935.107,2.851,0,5.859-.065,7.457-.105a3.733,3.733,0,0,0,3.546-3.08,29.149,29.149,0,0,0,.533-4.283,12.288,12.288,0,0,1,5.162.012,29.024,29.024,0,0,0,.532,4.267,3.736,3.736,0,0,0,3.552,3.084c1.593.04,4.6.105,7.448.105,1.856,0,3.649-.028,4.945-.107a3.769,3.769,0,0,0,3.353-2.589,15.138,15.138,0,0,0,2.019,1.345c-.518,3.761-1.093,7.235-1.485,8.942C85.185,74.728,77.125,81.3,70.069,83.83Zm-23.3-39.083c.024-.1.062-.283.1-.494A23.108,23.108,0,0,1,50.14,43.8a32.2,32.2,0,0,1,6.95.25h.03a.037.037,0,0,0,.03.01,1.284,1.284,0,0,0,.31-2.55,35.037,35.037,0,0,0-7.52-.07c-.88.093-1.755.232-2.628.405.251-1.587.447-3.2.632-4.771.907-7.68,1.69-14.313,8.777-14.394a1,1,0,0,0,.573-.188,8.785,8.785,0,0,1,8.2-1.551c4.869,1.605,9.044,7.531,10.651,12.553.726,2.273,1.336,4.4,1.927,6.446l.445,1.543c-.113-.013-.227-.031-.339-.043a35.037,35.037,0,0,0-7.52.07,1.284,1.284,0,0,0,.31,2.55.037.037,0,0,0,.03-.01h.03a32.2,32.2,0,0,1,6.95-.25q.631.041,1.259.116l.115.38a.706.706,0,0,0,.021.079c.33,1.07.635,1.989.935,2.83-3.588-.1-7.885,0-10.221.168a3.716,3.716,0,0,0-3.322,2.617,14.236,14.236,0,0,0-5.534-.01,3.716,3.716,0,0,0-3.321-2.607c-2.889-.21-8.209-.283-11.811-.112C46.343,46.461,46.569,45.636,46.764,44.747Zm36,7.838.015.026c.274.45.56.868.854,1.269.047.064.093.13.14.193q.429.567.89,1.074c.027.029.05.063.077.092-.039.217-.079.418-.124.6a1.86,1.86,0,0,1-1.689,1.537c-3.2.2-9.608.065-12.209,0a1.748,1.748,0,0,1-1.655-1.521,26.013,26.013,0,0,1-.5-4.637,1.767,1.767,0,0,1,1.672-1.845c.6-.044,1.336-.082,2.155-.113a1,1,0,0,0,1.639.859,3.77,3.77,0,0,1,.989-.575,2.791,2.791,0,0,0-.767,1.939v1.234a2.489,2.489,0,1,0,4.962,0V51.478a2.861,2.861,0,0,0-.723-1.906,2.389,2.389,0,0,0-.213-.19,3.063,3.063,0,0,1,1.773,1.191,1,1,0,0,0,1.376.329.986.986,0,0,0,.291-.272l.146.3c.041.082.083.16.124.24C82.237,51.664,82.5,52.141,82.766,52.585ZM45.41,49.3c.323-.021.673-.038,1.035-.053-.068.091-.138.182-.2.278a1,1,0,0,0,1.705,1.046,3.063,3.063,0,0,1,1.773-1.191,2.389,2.389,0,0,0-.213.19,2.861,2.861,0,0,0-.723,1.906v1.234a2.489,2.489,0,1,0,4.962,0V51.478a2.788,2.788,0,0,0-.768-1.94,3.779,3.779,0,0,1,.99.576,1,1,0,0,0,1.639-.859c.81.031,1.545.068,2.156.113a1.744,1.744,0,0,1,1.656,1.681,1,1,0,0,0,.013.282,26.312,26.312,0,0,1-.5,4.523,1.745,1.745,0,0,1-1.649,1.517c-2.606.065-9.012.2-12.208,0a1.849,1.849,0,0,1-1.7-1.554,15.6,15.6,0,0,1-.3-1.832A23.848,23.848,0,0,0,45.41,49.3ZM105,62.278c-2.835,10.9-15.867,18.25-28.6,20.7,5.37-3.263,10.419-8.362,12.21-14.478a7.152,7.152,0,0,0,1,.108,3.689,3.689,0,0,0,6.655-2.2c0-.1-.022-.193-.029-.29a9.748,9.748,0,0,0,2.785-3.864c1.375-3.641.581-7.333-2.018-9.4a7.274,7.274,0,0,0-4.884-1.545A16.7,16.7,0,0,1,90.87,44.49c0-10.665-.418-14.324-3.361-19.747a1,1,0,1,0-1.758.954c2.731,5.032,3.119,8.527,3.119,18.793a18.074,18.074,0,0,0,1.707,8.289v0l0,.007a15.422,15.422,0,0,0,3.31,4.288c.067.063.278.28.194.422-.11.189-.662.478-1.658.168A16.328,16.328,0,0,1,90,56.7a12.574,12.574,0,0,1-3.481-2.5A18.256,18.256,0,0,1,82.7,47.892c-.449-1.134-.892-2.419-1.394-4.042-.006-.024-.012-.048-.019-.071-.24-.787-.478-1.594-.727-2.439L80,39.387c-.595-2.065-1.209-4.2-1.943-6.5-1.708-5.336-6.17-11.944-11.931-13.843a10.6,10.6,0,0,0-9.739,1.646c-8.553.289-9.5,8.352-10.425,16.152-.2,1.67-.4,3.4-.672,5.044-.069.382-.372,1.988-.473,2.422a28.879,28.879,0,0,1-1.06,3.721A21.913,21.913,0,0,1,41.209,53.2a20.4,20.4,0,0,1-3.445,3.95,24.655,24.655,0,0,1-4.087,2.932.534.534,0,0,1-.726-.079.78.78,0,0,1-.07-.983,13.309,13.309,0,0,0,2.063-6.419c0-.034,0-.071.009-.1l0-.01v0c.247-2.221.283-4.679.32-7.281.1-6.979.206-14.89,4.657-20.289a1,1,0,1,0-1.543-1.272c-4.9,5.941-5.013,14.225-5.114,21.533-.033,2.341-.072,4.553-.26,6.546A7.791,7.791,0,0,0,30.9,52.848c-2.6,2.068-3.4,5.759-2.034,9.4a9.727,9.727,0,0,0,2.706,3.791,3.667,3.667,0,0,0-.037.365,3.689,3.689,0,0,0,6.648,2.214,7.3,7.3,0,0,0,1.1-.118c1.8,6.137,6.857,11.24,12.244,14.5C38.8,80.53,25.782,73.175,22.948,62.278c-2.424-9.324,1.417-15.38,4.806-20.724,1.654-2.607,3.082-4.859,3.565-7.191,3.051-14.747,9.86-23.444,20.248-25.852A4.42,4.42,0,0,0,53.14,7.8,20.355,20.355,0,0,1,72.576,5.458c10.986,4.084,21.08,16.33,24.546,29.782a24.488,24.488,0,0,0,3.385,6.608C103.774,46.961,107.478,52.757,105,62.278Zm-9.731-6.651A16.067,16.067,0,0,1,93.3,53.393a4.9,4.9,0,0,1,2.459,1.019c2.322,1.849,2.2,5,1.4,7.138a7.5,7.5,0,0,1-1.69,2.579,3.676,3.676,0,0,0-5.957.2c.262-1.533.543-3.349.817-5.3.481.194.983.377,1.51.541,1.96.609,3.411-.1,3.979-1.065A2.3,2.3,0,0,0,95.271,55.627Zm-1,10.78a1.7,1.7,0,1,1-1.7-1.7A1.7,1.7,0,0,1,94.269,66.407Zm-59.036-3.7a3.682,3.682,0,0,0-2.853,1.372,7.476,7.476,0,0,1-1.644-2.529c-.8-2.138-.911-5.291,1.418-7.146a3.99,3.99,0,0,1,.553-.351,9.434,9.434,0,0,1-1.448,3.8,2.8,2.8,0,0,0,.21,3.5,2.481,2.481,0,0,0,1.853.848,2.7,2.7,0,0,0,1.358-.382A27.407,27.407,0,0,0,37.688,59.8c.26,1.8.515,3.429.751,4.793A3.688,3.688,0,0,0,35.233,62.706Zm1.7,3.7a1.7,1.7,0,1,1-1.7-1.7A1.7,1.7,0,0,1,36.934,66.407Z"/></g><text x="0" y="143" fill="#000000" font-size="5px" font-weight="bold" font-family="'Helvetica Neue', Helvetica, Arial-Unicode, Arial, Sans-serif">Created by Victoruler</text><text x="0" y="148" fill="#000000" font-size="5px" font-weight="bold" font-family="'Helvetica Neue', Helvetica, Arial-Unicode, Arial, Sans-serif">from the Noun Project</text></svg>