<svg xmlns="http://www.w3.org/2000/svg" version="1.1" viewBox="-5.0 -10.0 110.0 135.0">
 <path d="m66.57 54.617c-4.8047 3.0117-10.488 4.7578-16.57 4.7578-6.0859 0-11.762-1.7422-16.555-4.7734-1.4922-0.96094-3.2539-1.4766-5.0508-1.4766h-0.27344c-8.6289 0-15.625 6.9961-15.625 15.625v12.5c0 4.1445 1.6484 8.1172 4.5742 11.051 2.9297 2.9297 6.9062 4.5742 11.051 4.5742h43.75c4.1445 0 8.1172-1.6484 11.051-4.5742 2.9297-2.9297 4.5742-6.9062 4.5742-11.051v-12.5c0-8.6289-6.9961-15.625-15.625-15.625-0.17578 0-0.34766 0.007812-0.51953 0.023438-1.6836 0.039062-3.3438 0.55078-4.7852 1.4688zm-16.57-51.492c-13.797 0-25 11.203-25 25s11.203 25 25 25 25-11.203 25-25-11.203-25-25-25z" fill-rule="evenodd"/>
<text x="0.0" y="117.5" font-size="5.0" font-weight="bold" font-family="Arbeit Regular, Helvetica, Arial-Unicode, Arial, Sans-serif" fill="#000000">Created by Hary Murdiono JS</text><text x="0.0" y="122.5" font-size="5.0" font-weight="bold" font-family="Arbeit Regular, Helvetica, Arial-Unicode, Arial, Sans-serif" fill="#000000">from Noun Project</text></svg>